<svg width="62" height="39" viewBox="0 0 62 39" fill="none" xmlns="http://www.w3.org/2000/svg">
<path d="M2.944 38.336C2.23467 38.336 1.6 38.056 1.04 37.496C0.48 36.936 0.2 36.3013 0.2 35.592L0.256 2.944C0.256 2.19733 0.498667 1.56267 0.984 1.04C1.50667 0.479999 2.16 0.199999 2.944 0.199999C3.392 0.199999 3.82133 0.311999 4.232 0.535998C4.64267 0.722665 4.97867 1.00266 5.24 1.376L22.768 26.744V2.944C22.768 2.19733 23.0293 1.544 23.552 0.983999C24.112 0.423998 24.784 0.143997 25.568 0.143997C26.3147 0.143997 26.9493 0.423998 27.472 0.983999C28.032 1.544 28.312 2.19733 28.312 2.944V35.592C28.312 36.376 28.0507 37.0293 27.528 37.552C27.0053 38.0747 26.352 38.336 25.568 38.336C25.1573 38.336 24.728 38.224 24.28 38C23.8693 37.776 23.5333 37.4773 23.272 37.104L5.8 11.848L5.744 35.592C5.744 36.376 5.464 37.0293 4.904 37.552C4.38133 38.0747 3.728 38.336 2.944 38.336ZM47.6513 38.336C44.4406 38.336 41.6406 37.6267 39.2513 36.208C36.8993 34.7893 35.2379 33.0533 34.2673 31C33.8566 30.104 33.6513 29.376 33.6513 28.816C33.6513 28.032 33.9313 27.3787 34.4913 26.856C35.0513 26.296 35.7233 26.016 36.5073 26.016C37.1793 26.016 37.7579 26.2027 38.2433 26.576C38.7286 26.9493 39.0833 27.4533 39.3073 28.088C39.9046 29.6933 41.0059 30.9253 42.6113 31.784C44.2166 32.6427 45.9339 33.072 47.7633 33.072C50.0779 33.072 51.9819 32.5307 53.4753 31.448C55.0059 30.328 55.7713 28.9653 55.7713 27.36C55.7713 26.128 55.1553 25.008 53.9233 24C52.7286 22.992 50.6753 22.0773 47.7633 21.256C43.9926 20.2107 41.0246 18.8667 38.8593 17.224C36.6939 15.544 35.6113 13.248 35.6113 10.336C35.6113 8.35733 36.1339 6.60266 37.1793 5.072C38.2619 3.504 39.7926 2.29066 41.7713 1.432C43.7499 0.57333 46.0646 0.143997 48.7153 0.143997C52.5233 0.143997 55.5099 0.890664 57.6753 2.384C59.8779 3.87733 60.9793 5.87467 60.9793 8.376C60.9793 9.19733 60.7179 9.888 60.1953 10.448C59.6726 11.008 59.0193 11.288 58.2353 11.288C57.5633 11.288 56.9846 11.064 56.4993 10.616C56.0139 10.168 55.7339 9.608 55.6593 8.936C55.5099 7.89066 54.8193 7.032 53.5873 6.36C52.3553 5.65066 50.7313 5.296 48.7153 5.296C46.2139 5.296 44.3099 5.72533 43.0033 6.584C41.6966 7.40533 41.0433 8.52533 41.0433 9.944C41.0433 11.2507 41.7153 12.352 43.0593 13.248C44.4033 14.144 46.6059 15.04 49.6673 15.936C53.4379 17.0187 56.2939 18.4747 58.2353 20.304C60.1766 22.1333 61.1473 24.392 61.1473 27.08C61.1473 29.1707 60.5313 31.0747 59.2993 32.792C58.0673 34.5093 56.4059 35.872 54.3153 36.88C52.2619 37.8507 50.0406 38.336 47.6513 38.336Z" fill="black"/>
</svg>
